<svg width="581" height="581" viewBox="0 0 581 581" fill="none" xmlns="http://www.w3.org/2000/svg">
<path d="M290.3 0C450.628 8.39233e-05 580.6 129.972 580.6 290.3C580.599 450.628 450.628 580.6 290.3 580.6C129.972 580.6 0.000110626 450.628 0 290.3C0 129.972 129.972 0 290.3 0ZM290.3 60C163.109 60 60 163.109 60 290.3C60 357.873 89.1023 418.649 135.457 460.777C131.899 449.478 130 437.599 130 425.342C130 360.541 183.018 306.304 254.073 292.463C256.882 290.969 259.209 289.33 261.169 287.596C265.916 283.396 268.582 278.597 270.732 273.857C272.855 269.18 274.541 264.366 277.27 260.528C279.669 257.154 282.89 254.485 287.92 253.023V219.38C264.912 218.395 246.561 199.435 246.561 176.185C246.561 153.05 264.729 134.158 287.575 133C273.555 137.823 263.48 151.127 263.48 166.784C263.481 186.512 279.473 202.504 299.2 202.504C314.858 202.504 328.161 192.429 332.984 178.408C331.89 200.004 314.95 217.416 293.56 219.259V253.023C298.59 254.485 301.811 257.154 304.21 260.528C306.938 264.366 308.625 269.18 310.748 273.857C312.899 278.597 315.565 283.396 320.312 287.596C322.554 289.58 325.277 291.443 328.652 293.102C398.131 307.904 449.599 361.495 449.6 425.342C449.6 438.058 447.553 450.366 443.734 462.044C490.906 419.872 520.6 358.554 520.6 290.3C520.6 163.109 417.491 60.0001 290.3 60Z" fill="white"/>
</svg>
